<svg xmlns="http://www.w3.org/2000/svg" viewBox="0 0 1200 420"><defs><linearGradient id="g" x1="0" y1="0" x2="1" y2="1"><stop stop-color="#0b7654"/><stop offset="1" stop-color="#7ab98b"/></linearGradient><radialGradient id="r" cx=".2" cy="0" r="1"><stop stop-color="white" stop-opacity=".19"/><stop offset="1" stop-color="white" stop-opacity="0"/></radialGradient></defs><rect width="1200" height="420" rx="42" fill="url(#g)"/><rect width="1200" height="420" rx="42" fill="url(#r)"/><path d="M0 320 205 164l112 83 173-146 169 126 185-171 356 264Z" fill="white" fill-opacity=".12"/><path d="M930 260c-78-48-93-131-34-181 69 10 111 62 101 130-21-40-52-68-91-87 31 31 45 76 24 138Z" fill="white" fill-opacity=".30"/><path d="M72 75h420" stroke="#d85768" stroke-opacity=".58" stroke-width="4" stroke-linecap="round"/><text x="72" y="185" fill="white" font-family="Noto Serif Bengali, sans-serif" font-size="64" font-weight="800">পরিবেশের কথা</text><text x="75" y="238" fill="white" fill-opacity=".82" font-family="Noto Sans Bengali, sans-serif" font-size="25">প্রকৃতি, নদী, পানি, গাছ এবং আমাদের দায়িত্ব</text><rect x="72" y="291" width="110" height="6" rx="3" fill="#16935f"/><rect x="194" y="291" width="110" height="6" rx="3" fill="#e5304d"/><rect x="316" y="291" width="110" height="6" rx="3" fill="#195b9c"/></svg>